<?xml version="1.0" encoding="UTF-8"?>
<svg id="Camada_1" data-name="Camada 1" xmlns="http://www.w3.org/2000/svg" viewBox="0 0 306.06 229.65">
  <defs>
    <style>
      .cls-1 {
        fill: #37b39b;
      }

      .cls-1, .cls-2 {
        stroke-width: 0px;
      }

      .cls-2 {
        fill: #e54261;
      }
    </style>
  </defs>
  <path class="cls-1" d="M63.22,166l-24.74,24.64c11.27,14.33,25.92,25.22,42.67,31.81l9.23-33.64c-10.83-4.98-20.17-12.78-27.16-22.81Z"/>
  <g>
    <path class="cls-2" d="M109.75,194.43l-9.2,33.53c6.18,1.12,12.38,1.69,18.54,1.69,7.09,0,14.11-.79,20.99-2.24l9.28-39.66c-12.22,6.18-25.9,8.56-39.6,6.69Z"/>
    <path class="cls-2" d="M52.16,114.86c6.04-32.63,34.62-55.5,66.68-55.5,1.48,0,2.97.07,4.47.17l27.5-29.62c-4.32-1.41-8.75-2.56-13.29-3.4-14.61-2.71-29.31-2.21-43.32,1.27L78.43,0l-42.6,24.18,15.03,26.47c-8.08,7.15-14.92,15.43-20.3,24.6l-19.62-8.05L0,93.86l19.64,8.06c-.55,2.19-1.07,4.4-1.48,6.64-4.13,22.28-.84,44.78,9.22,64.67l26.52-26.41c-3.1-10.24-3.74-21.13-1.74-31.95Z"/>
  </g>
  <polygon class="cls-2" points="306.06 82.82 225.26 82.82 218.06 82.82 195.56 82.82 212.68 9.63 95.03 136.35 153.86 136.35 183.03 136.35 205.54 136.35 188.41 209.55 306.06 82.82"/>
</svg>